#!OML:ASF Y:\EmotionMaleHayes\Project 1\Capture day 1\Session 1\Male1.ASF
:FULLY-SPECIFIED
:DEGREES
68
root -29.2826 16.9561 -0.237704 25.6664 74.4846 31.3652
lowerback 7.87346 3.5634 -14.133
upperback 5.10316 4.10048 -3.36152
thorax 0.324164 1.91332 4.00594
lowerneck -26.2779 3.40717 4.71183
upperneck 18.3126 3.64571 -3.04068
head 10.305 1.63151 -1.26418
rclavicle 2.15681e-014 -1.08934e-013
rhumerus -29.6604 20.3317 -97.5706
rradius 35.952
rwrist -1.55808
rhand -8.13743 -33.9893
rfingers 7.12502
rthumb 17.7766 -63.1968
lclavicle 2.15681e-014 -1.08934e-013
lhumerus -27.3672 -19.6809 89.5682
lradius 25.3306
lwrist -13.8919
lhand -11.0396 -24.9796
lfingers 7.12502
lthumb 14.9824 4.45837
rfemur -1.65116 -0.0708873 -2.72918
rtibia 22.0315
rfoot -17.5749 -0.975696
rtoes -1.25084
lfemur 13.9976 9.18328 -24.5705
ltibia 1.49574
lfoot -14.7937 15.9321
ltoes -3.23791
69
root -29.2871 16.9574 -0.224015 24.8899 74.2804 30.6197
lowerback 7.85996 3.71721 -14.0903
upperback 5.07866 4.30626 -3.41658
thorax 0.276257 2.02114 3.90309
lowerneck -26.4602 3.40866 4.73247
upperneck 18.7945 3.63256 -2.99005
head 10.5115 1.63278 -1.25039
rclavicle 7.35503e-015 -4.6118e-014
rhumerus -29.925 20.5758 -97.8038
rradius 36.1076
rwrist -1.7462
rhand -7.94483 -34.2534
rfingers 7.12502
rthumb 17.9619 -63.444
lclavicle 7.35503e-015 -4.6118e-014
lhumerus -27.2262 -20.2512 89.4486
lradius 25.3813
lwrist -13.5205
lhand -11.1628 -24.8091
lfingers 7.12502
lthumb 14.8637 4.63768
rfemur -1.81704 -0.0325703 -2.38234
rtibia 22.3315
rfoot -17.7556 -0.744499
rtoes -0.83573
lfemur 14.0789 9.07287 -24.522
ltibia 1.401
lfoot -14.8889 16.2614
ltoes -3.06495
70
root -29.2887 16.9564 -0.210376 23.8081 74.0995 29.4508
lowerback 7.75439 3.85092 -13.8905
upperback 4.98634 4.50027 -3.47598
thorax 0.217079 2.12763 3.71581
lowerneck -26.3167 3.35897 4.83025
upperneck 19.0871 3.56007 -3.05177
head 10.5942 1.60194 -1.30218
rclavicle 3.57812e-015 -6.67916e-014
rhumerus -30.1146 20.7555 -98.0964
rradius 36.0762
rwrist -1.97658
rhand -7.86518 -34.5492
rfingers 7.12502
rthumb 18.0386 -63.7327
lclavicle 3.57812e-015 -6.67916e-014
lhumerus -27.0943 -20.2934 89.0924
lradius 25.4477
lwrist -13.9333
lhand -11.5277 -24.9109
lfingers 7.12502
lthumb 14.5121 4.56158
rfemur -2.05083 0.0736237 -1.88652
rtibia 22.5906
rfoot -18.0192 -0.615169
rtoes 0.249531
lfemur 14.0975 9.06764 -24.2961
ltibia 1.2592
lfoot -14.917 16.5334
ltoes -3.12692
71
root -29.2796 16.9559 -0.196611 24.1049 74.3951 29.6807
lowerback 7.67334 3.79528 -13.8234
upperback 4.88733 4.43198 -3.50769
thorax 0.172482 2.1006 3.65524
lowerneck -26.3441 3.39712 5.07938
upperneck 19.4772 3.59105 -3.29357
head 10.7546 1.60527 -1.42598
rclavicle 2.22639e-014 -2.3059e-014
rhumerus -30.3427 20.8881 -98.3275
rradius 35.5825
rwrist -1.69083
rhand -8.22428 -33.7336
rfingers 7.12502
rthumb 17.693 -62.9486
lclavicle 2.22639e-014 -2.3059e-014
lhumerus -26.9487 -19.8886 88.7245
lradius 25.3859
lwrist -14.7866
lhand -11.9161 -25.1945
lfingers 7.12502
lthumb 14.1379 4.30444
rfemur -1.76702 -0.120363 -1.64105
rtibia 22.4041
rfoot -18.3301 -0.846596
rtoes 0.705648
lfemur 14.088 8.85506 -24.2174
ltibia 1.2095
lfoot -14.8179 16.5046
ltoes -3.70442
72
root -29.2698 16.9621 -0.176722 24.6398 74.7742 30.3961
lowerback 7.86257 3.76847 -13.9362
upperback 4.84027 4.35013 -3.47685
thorax 0.0226484 2.06814 3.74284
lowerneck -26.0133 3.31 4.81729
upperneck 19.5227 3.54393 -3.1018
head 10.7014 1.59289 -1.32398
rclavicle 2.5842e-015 1.66979e-014
rhumerus -30.642 20.5589 -98.3611
rradius 34.5984
rwrist -0.0994028
rhand -9.36268 -31.2484
rfingers 7.12502
rthumb 16.5973 -60.5587
lclavicle 2.5842e-015 1.66979e-014
lhumerus -26.7699 -19.3757 88.4713
lradius 25.2436
lwrist -15.556
lhand -11.6427 -25.3739
lfingers 7.12502
lthumb 14.4013 4.10648
rfemur -1.05184 -0.260061 -1.45769
rtibia 21.8962
rfoot -18.3634 -1.4961
rtoes 0.430122
lfemur 14.4194 8.24327 -24.3122
ltibia 0.927681
lfoot -14.736 16.7591
ltoes -4.04062
73
root -29.2715 16.9549 -0.159261 24.6042 74.4735 30.2297
lowerback 7.68771 3.92952 -14.1571
upperback 4.70506 4.56009 -3.48939
thorax -0.0720583 2.17714 3.83123
lowerneck -25.8839 3.23845 4.64391
upperneck 19.6127 3.49888 -3.01094
head 10.7044 1.57281 -1.27144
rclavicle -2.64384e-014 1.03368e-014
rhumerus -30.8664 20.5024 -98.4166
rradius 34.4777
rwrist -0.298913
rhand -9.6436 -31.1958
rfingers 7.12502
rthumb 16.3268 -60.5285
lclavicle -2.64384e-014 1.03368e-014
lhumerus -26.558 -19.139 88.3462
lradius 25.1773
lwrist -15.6195
lhand -10.9961 -25.3186
lfingers 7.12502
lthumb 15.0242 4.11628
rfemur -1.25118 -0.172927 -1.37409
rtibia 21.7834
rfoot -18.1298 -2.03125
rtoes 0.477587
lfemur 14.4098 7.96928 -24.5774
ltibia 0.609642
lfoot -14.7904 17.2932
ltoes -3.95734
74
root -29.2559 16.9617 -0.135751 26.8017 75.4711 32.5824
lowerback 7.80689 3.62938 -14.2774
upperback 4.75261 4.14587 -3.47187
thorax -0.0229284 1.96703 3.95395
lowerneck -25.6968 3.18766 4.45836
upperneck 19.6705 3.48903 -2.92079
head 10.6865 1.5682 -1.21164
rclavicle -2.15681e-014 4.77083e-015
rhumerus -31.0781 20.5658 -98.5009
rradius 34.467
rwrist -0.48983
rhand -9.91377 -31.231
rfingers 7.12502
rthumb 16.0667 -60.5849
lclavicle -2.15681e-014 4.77083e-015
lhumerus -26.4159 -19.1646 88.2608
lradius 25.2552
lwrist -15.3047
lhand -11.5209 -25.1761
lfingers 7.12502
lthumb 14.5186 4.29584
rfemur -0.0673213 -0.469851 -1.32835
rtibia 20.8784
rfoot -18.1693 -3.24654
rtoes 1.11228
lfemur 14.4501 7.52005 -24.4728
ltibia 0.85169
lfoot -14.5821 16.6795
ltoes -4.25017
75
root -29.2488 16.9583 -0.114227 27.0965 75.5198 32.7523
lowerback 7.58896 3.64097 -14.3737
upperback 4.64958 4.17972 -3.48012
thorax -0.0232481 1.98452 4.00303
lowerneck -25.6819 3.20113 4.47579
upperneck 20.0203 3.53919 -3.01064
head 10.8175 1.58261 -1.23936
rclavicle -5.46658e-015 -9.54166e-015
rhumerus -31.3208 20.4454 -98.5672
rradius 34.444
rwrist -0.474179
rhand -9.99515 -31.3085
rfingers 7.12502
rthumb 15.9883 -60.6687
lclavicle -5.46658e-015 -9.54166e-015
lhumerus -26.4002 -19.0604 88.1314
lradius 25.4611
lwrist -15.1372
lhand -13.572 -25.0489
lfingers 7.12502
lthumb 12.5418 4.55466
rfemur 0.0734205 -0.307433 -1.16209
rtibia 20.4509
rfoot -18.1017 -4.06269
rtoes 0.723942
lfemur 14.3447 7.49638 -24.4237
ltibia 0.852151
lfoot -14.5451 16.6724
ltoes -4.1522
76
root -29.2366 16.9521 -0.0996017 27.8963 75.5622 33.4073
lowerback 7.30382 3.6378 -14.4488
upperback 4.56379 4.21301 -3.54085
thorax 0.0376351 1.99948 3.99059
lowerneck -25.7025 3.20719 4.35287
upperneck 20.2897 3.56249 -2.85122
head 10.9162 1.60524 -1.15733
rclavicle -1.30204e-014 5.08889e-014
rhumerus -31.4506 20.3016 -98.5762
rradius 34.2993
rwrist -0.529983
rhand -10.0232 -31.3327
rfingers 7.12502
rthumb 15.9613 -60.695
lclavicle -1.30204e-014 5.08889e-014
lhumerus -26.3047 -18.86 87.9759
lradius 25.6561
lwrist -14.967
lhand -11.4482 -25.248
lfingers 7.12502
lthumb 14.5887 4.21897
rfemur 0.225376 -0.403039 -1.26987
rtibia 19.8831
rfoot -17.8751 -4.54756
rtoes -0.535267
lfemur 14.204 7.45636 -24.5845
ltibia 0.865264
lfoot -14.5277 16.6005
ltoes -4.45912
77
root -29.2254 16.9509 -0.0889771 29.1872 75.4839 34.7193
lowerback 7.20154 3.69254 -14.6335
upperback 4.52295 4.29476 -3.68494
thorax 0.0388996 2.04256 3.93462
lowerneck -25.8168 3.18072 4.30744
upperneck 20.6224 3.53992 -2.8117
head 11.0581 1.5968 -1.13862
rclavicle 6.4605e-015 2.38542e-014
rhumerus -31.4876 20.1327 -98.5999
rradius 34.1078
rwrist -0.519799
rhand -10.0582 -31.4257
rfingers 7.12502
rthumb 15.9276 -60.7907
lclavicle 6.4605e-015 2.38542e-014
lhumerus -26.1031 -18.9783 87.8617
lradius 25.747
lwrist -14.5197
lhand -11.351 -25.117
lfingers 7.12502
lthumb 14.6824 4.34309
rfemur 0.504968 -0.451264 -1.63888
rtibia 19.4797
rfoot -17.9659 -4.64661
rtoes -1.05066
lfemur 14.1982 7.3504 -25.0412
ltibia 0.874763
lfoot -14.5674 16.631
ltoes -4.9808
78
root -29.2121 16.9522 -0.0686758 30.3103 75.8929 35.9737
lowerback 7.27922 3.63402 -14.5556
upperback 4.53136 4.21441 -3.77383
thorax 0.029995 2.00787 3.80319
lowerneck -25.7606 3.1086 4.31865
upperneck 20.776 3.44908 -2.82763
head 11.1023 1.5562 -1.16233
rclavicle -3.25013e-014 1.43125e-014
rhumerus -31.5763 19.7933 -98.6657
rradius 33.9935
rwrist -0.330617
rhand -10.136 -31.3681
rfingers 7.12502
rthumb 15.8526 -60.7391
lclavicle -3.25013e-014 1.43125e-014
lhumerus -26.1455 -18.8922 87.6419
lradius 26.3115
lwrist -14.3986
lhand -11.8961 -24.7539
lfingers 7.12502
lthumb 14.1572 4.74372
rfemur 1.27761 -0.346593 -1.60261
rtibia 18.8348
rfoot -18.2085 -5.05386
rtoes -0.679987
lfemur 14.3356 7.10522 -25.0122
ltibia 0.942482
lfoot -14.5086 16.4038
ltoes -5.37905
